<svg width="256" height="64" viewBox="0 0 64 16" fill="none" xmlns="http://www.w3.org/2000/svg">
	<path
		d="M3.72361 5.44722L7.10557 12.2111C7.4741 12.9482 8.5259 12.9482 8.89443 12.2111L12.2764 5.44721C12.6088 4.78231 12.1253 4 11.382 4H4.61803C3.87465 4 3.39116 4.78231 3.72361 5.44722Z"
		fill="#D9D9D9" />
	<path
		d="M44.2764 10.5528L40.8944 3.78885C40.5259 3.05181 39.4741 3.05181 39.1056 3.78886L35.7236 10.5528C35.3912 11.2177 35.8747 12 36.618 12L43.382 12C44.1253 12 44.6088 11.2177 44.2764 10.5528Z"
		fill="#D9D9D9" />
	<path
		d="M20.9472 12.2764L27.7111 8.89443C28.4482 8.5259 28.4482 7.4741 27.7111 7.10557L20.9472 3.72361C20.2823 3.39116 19.5 3.87465 19.5 4.61803L19.5 11.382C19.5 12.1253 20.2823 12.6088 20.9472 12.2764Z"
		fill="#D9D9D9" />
	<path
		d="M59.0528 3.72361L52.2889 7.10557C51.5518 7.4741 51.5518 8.5259 52.2889 8.89443L59.0528 12.2764C59.7177 12.6088 60.5 12.1253 60.5 11.382V4.61803C60.5 3.87465 59.7177 3.39116 59.0528 3.72361Z"
		fill="#D9D9D9" />
</svg>