<svg width="64" height="64" viewBox="0 0 16 16" fill="none" xmlns="http://www.w3.org/2000/svg">
	<path
		d="M7 8L1.5 2.5C1.22386 2.22386 1.22386 1.77614 1.5 1.5C1.77614 1.22386 2.22386 1.22386 2.5 1.5L8 7L13.5 1.5C13.7761 1.22386 14.2239 1.22386 14.5 1.5C14.7761 1.77614 14.7761 2.22386 14.5 2.5L9 8L14.5 13.5C14.7761 13.7761 14.7761 14.2239 14.5 14.5C14.2239 14.7761 13.7761 14.7761 13.5 14.5L8 9L2.5 14.5C2.22386 14.7761 1.77614 14.7761 1.5 14.5C1.22386 14.2239 1.22386 13.7761 1.5 13.5L7 8Z"
		fill="#D9D9D9" />
</svg>