<svg width="64" height="64" viewBox="0 0 16 16" fill="none" xmlns="http://www.w3.org/2000/svg">
	<path
		d="M7.60355 13.3964L13.8964 7.10355C14.1192 6.88083 14.5 7.03857 14.5 7.35355C14.5 7.44732 14.4628 7.53725 14.3964 7.60355L8.10355 13.8964C8.03725 13.9628 7.94732 14 7.85355 14C7.53857 14 7.38083 13.6192 7.60355 13.3964Z"
		fill="white" />
	<path
		d="M11.1036 13.3964L13.8964 10.6036C14.1192 10.3808 14.5 10.5386 14.5 10.8536C14.5 10.9473 14.4628 11.0372 14.3964 11.1036L11.6036 13.8964C11.5372 13.9628 11.4473 14 11.3536 14C11.0386 14 10.8808 13.6192 11.1036 13.3964Z"
		fill="white" />
</svg>